<mxfile host="app.diagrams.net" agent="Mozilla/5.0 (Windows NT 10.0; Win64; x64) AppleWebKit/537.36 (KHTML, like Gecko) Chrome/128.0.0.0 Whale/3.28.266.14 Safari/537.36" version="24.8.9">
  <diagram name="페이지-1" id="63Xeanp-rrekBfJTOKAw">
    <mxGraphModel dx="1332" dy="1712" grid="0" gridSize="10" guides="1" tooltips="1" connect="1" arrows="1" fold="1" page="0" pageScale="1" pageWidth="827" pageHeight="1169" math="0" shadow="0">
      <root>
        <mxCell id="0" />
        <mxCell id="1" parent="0" />
        <mxCell id="nWNgb4miwz-LYuUAV93a-1" value="정착민" style="shape=table;startSize=30;container=1;collapsible=1;childLayout=tableLayout;fixedRows=1;rowLines=0;fontStyle=1;align=center;resizeLast=1;html=1;fillColor=#dae8fc;strokeColor=#6c8ebf;gradientColor=#7ea6e0;" vertex="1" parent="1">
          <mxGeometry x="32" y="51" width="190" height="250" as="geometry" />
        </mxCell>
        <mxCell id="nWNgb4miwz-LYuUAV93a-2" value="" style="shape=tableRow;horizontal=0;startSize=0;swimlaneHead=0;swimlaneBody=0;fillColor=none;collapsible=0;dropTarget=0;points=[[0,0.5],[1,0.5]];portConstraint=eastwest;top=0;left=0;right=0;bottom=1;" vertex="1" parent="nWNgb4miwz-LYuUAV93a-1">
          <mxGeometry y="30" width="190" height="30" as="geometry" />
        </mxCell>
        <mxCell id="nWNgb4miwz-LYuUAV93a-3" value="기본키" style="shape=partialRectangle;connectable=0;fillColor=none;top=0;left=0;bottom=0;right=0;fontStyle=1;overflow=hidden;whiteSpace=wrap;html=1;" vertex="1" parent="nWNgb4miwz-LYuUAV93a-2">
          <mxGeometry width="46.24137931034471" height="30" as="geometry">
            <mxRectangle width="46.24137931034471" height="30" as="alternateBounds" />
          </mxGeometry>
        </mxCell>
        <mxCell id="nWNgb4miwz-LYuUAV93a-4" value="ColonistID" style="shape=partialRectangle;connectable=0;fillColor=none;top=0;left=0;bottom=0;right=0;align=left;spacingLeft=6;fontStyle=5;overflow=hidden;whiteSpace=wrap;html=1;" vertex="1" parent="nWNgb4miwz-LYuUAV93a-2">
          <mxGeometry x="46.24137931034471" width="143.7586206896553" height="30" as="geometry">
            <mxRectangle width="143.7586206896553" height="30" as="alternateBounds" />
          </mxGeometry>
        </mxCell>
        <mxCell id="nWNgb4miwz-LYuUAV93a-5" value="" style="shape=tableRow;horizontal=0;startSize=0;swimlaneHead=0;swimlaneBody=0;fillColor=none;collapsible=0;dropTarget=0;points=[[0,0.5],[1,0.5]];portConstraint=eastwest;top=0;left=0;right=0;bottom=0;" vertex="1" parent="nWNgb4miwz-LYuUAV93a-1">
          <mxGeometry y="60" width="190" height="30" as="geometry" />
        </mxCell>
        <mxCell id="nWNgb4miwz-LYuUAV93a-6" value="" style="shape=partialRectangle;connectable=0;fillColor=none;top=0;left=0;bottom=0;right=0;editable=1;overflow=hidden;whiteSpace=wrap;html=1;" vertex="1" parent="nWNgb4miwz-LYuUAV93a-5">
          <mxGeometry width="46.24137931034471" height="30" as="geometry">
            <mxRectangle width="46.24137931034471" height="30" as="alternateBounds" />
          </mxGeometry>
        </mxCell>
        <mxCell id="nWNgb4miwz-LYuUAV93a-7" value="성" style="shape=partialRectangle;connectable=0;fillColor=none;top=0;left=0;bottom=0;right=0;align=left;spacingLeft=6;overflow=hidden;whiteSpace=wrap;html=1;" vertex="1" parent="nWNgb4miwz-LYuUAV93a-5">
          <mxGeometry x="46.24137931034471" width="143.7586206896553" height="30" as="geometry">
            <mxRectangle width="143.7586206896553" height="30" as="alternateBounds" />
          </mxGeometry>
        </mxCell>
        <mxCell id="nWNgb4miwz-LYuUAV93a-79" value="" style="shape=tableRow;horizontal=0;startSize=0;swimlaneHead=0;swimlaneBody=0;fillColor=none;collapsible=0;dropTarget=0;points=[[0,0.5],[1,0.5]];portConstraint=eastwest;top=0;left=0;right=0;bottom=0;" vertex="1" parent="nWNgb4miwz-LYuUAV93a-1">
          <mxGeometry y="90" width="190" height="30" as="geometry" />
        </mxCell>
        <mxCell id="nWNgb4miwz-LYuUAV93a-80" value="" style="shape=partialRectangle;connectable=0;fillColor=none;top=0;left=0;bottom=0;right=0;editable=1;overflow=hidden;whiteSpace=wrap;html=1;" vertex="1" parent="nWNgb4miwz-LYuUAV93a-79">
          <mxGeometry width="46.24137931034471" height="30" as="geometry">
            <mxRectangle width="46.24137931034471" height="30" as="alternateBounds" />
          </mxGeometry>
        </mxCell>
        <mxCell id="nWNgb4miwz-LYuUAV93a-81" value="별명" style="shape=partialRectangle;connectable=0;fillColor=none;top=0;left=0;bottom=0;right=0;align=left;spacingLeft=6;overflow=hidden;whiteSpace=wrap;html=1;" vertex="1" parent="nWNgb4miwz-LYuUAV93a-79">
          <mxGeometry x="46.24137931034471" width="143.7586206896553" height="30" as="geometry">
            <mxRectangle width="143.7586206896553" height="30" as="alternateBounds" />
          </mxGeometry>
        </mxCell>
        <mxCell id="nWNgb4miwz-LYuUAV93a-82" value="" style="shape=tableRow;horizontal=0;startSize=0;swimlaneHead=0;swimlaneBody=0;fillColor=none;collapsible=0;dropTarget=0;points=[[0,0.5],[1,0.5]];portConstraint=eastwest;top=0;left=0;right=0;bottom=0;" vertex="1" parent="nWNgb4miwz-LYuUAV93a-1">
          <mxGeometry y="120" width="190" height="30" as="geometry" />
        </mxCell>
        <mxCell id="nWNgb4miwz-LYuUAV93a-83" value="" style="shape=partialRectangle;connectable=0;fillColor=none;top=0;left=0;bottom=0;right=0;editable=1;overflow=hidden;whiteSpace=wrap;html=1;" vertex="1" parent="nWNgb4miwz-LYuUAV93a-82">
          <mxGeometry width="46.24137931034471" height="30" as="geometry">
            <mxRectangle width="46.24137931034471" height="30" as="alternateBounds" />
          </mxGeometry>
        </mxCell>
        <mxCell id="nWNgb4miwz-LYuUAV93a-84" value="마지막 이름" style="shape=partialRectangle;connectable=0;fillColor=none;top=0;left=0;bottom=0;right=0;align=left;spacingLeft=6;overflow=hidden;whiteSpace=wrap;html=1;" vertex="1" parent="nWNgb4miwz-LYuUAV93a-82">
          <mxGeometry x="46.24137931034471" width="143.7586206896553" height="30" as="geometry">
            <mxRectangle width="143.7586206896553" height="30" as="alternateBounds" />
          </mxGeometry>
        </mxCell>
        <mxCell id="nWNgb4miwz-LYuUAV93a-8" value="" style="shape=tableRow;horizontal=0;startSize=0;swimlaneHead=0;swimlaneBody=0;fillColor=none;collapsible=0;dropTarget=0;points=[[0,0.5],[1,0.5]];portConstraint=eastwest;top=0;left=0;right=0;bottom=0;" vertex="1" parent="nWNgb4miwz-LYuUAV93a-1">
          <mxGeometry y="150" width="190" height="30" as="geometry" />
        </mxCell>
        <mxCell id="nWNgb4miwz-LYuUAV93a-9" value="" style="shape=partialRectangle;connectable=0;fillColor=none;top=0;left=0;bottom=0;right=0;editable=1;overflow=hidden;whiteSpace=wrap;html=1;" vertex="1" parent="nWNgb4miwz-LYuUAV93a-8">
          <mxGeometry width="46.24137931034471" height="30" as="geometry">
            <mxRectangle width="46.24137931034471" height="30" as="alternateBounds" />
          </mxGeometry>
        </mxCell>
        <mxCell id="nWNgb4miwz-LYuUAV93a-10" value="나이" style="shape=partialRectangle;connectable=0;fillColor=none;top=0;left=0;bottom=0;right=0;align=left;spacingLeft=6;overflow=hidden;whiteSpace=wrap;html=1;" vertex="1" parent="nWNgb4miwz-LYuUAV93a-8">
          <mxGeometry x="46.24137931034471" width="143.7586206896553" height="30" as="geometry">
            <mxRectangle width="143.7586206896553" height="30" as="alternateBounds" />
          </mxGeometry>
        </mxCell>
        <mxCell id="nWNgb4miwz-LYuUAV93a-11" value="" style="shape=tableRow;horizontal=0;startSize=0;swimlaneHead=0;swimlaneBody=0;fillColor=none;collapsible=0;dropTarget=0;points=[[0,0.5],[1,0.5]];portConstraint=eastwest;top=0;left=0;right=0;bottom=0;" vertex="1" parent="nWNgb4miwz-LYuUAV93a-1">
          <mxGeometry y="180" width="190" height="30" as="geometry" />
        </mxCell>
        <mxCell id="nWNgb4miwz-LYuUAV93a-12" value="" style="shape=partialRectangle;connectable=0;fillColor=none;top=0;left=0;bottom=0;right=0;editable=1;overflow=hidden;whiteSpace=wrap;html=1;" vertex="1" parent="nWNgb4miwz-LYuUAV93a-11">
          <mxGeometry width="46.24137931034471" height="30" as="geometry">
            <mxRectangle width="46.24137931034471" height="30" as="alternateBounds" />
          </mxGeometry>
        </mxCell>
        <mxCell id="nWNgb4miwz-LYuUAV93a-13" value="성별" style="shape=partialRectangle;connectable=0;fillColor=none;top=0;left=0;bottom=0;right=0;align=left;spacingLeft=6;overflow=hidden;whiteSpace=wrap;html=1;" vertex="1" parent="nWNgb4miwz-LYuUAV93a-11">
          <mxGeometry x="46.24137931034471" width="143.7586206896553" height="30" as="geometry">
            <mxRectangle width="143.7586206896553" height="30" as="alternateBounds" />
          </mxGeometry>
        </mxCell>
        <mxCell id="nWNgb4miwz-LYuUAV93a-15" value="" style="shape=tableRow;horizontal=0;startSize=0;swimlaneHead=0;swimlaneBody=0;fillColor=none;collapsible=0;dropTarget=0;points=[[0,0.5],[1,0.5]];portConstraint=eastwest;top=0;left=0;right=0;bottom=0;" vertex="1" parent="nWNgb4miwz-LYuUAV93a-1">
          <mxGeometry y="210" width="190" height="30" as="geometry" />
        </mxCell>
        <mxCell id="nWNgb4miwz-LYuUAV93a-16" value="" style="shape=partialRectangle;connectable=0;fillColor=none;top=0;left=0;bottom=0;right=0;editable=1;overflow=hidden;whiteSpace=wrap;html=1;" vertex="1" parent="nWNgb4miwz-LYuUAV93a-15">
          <mxGeometry width="46.24137931034471" height="30" as="geometry">
            <mxRectangle width="46.24137931034471" height="30" as="alternateBounds" />
          </mxGeometry>
        </mxCell>
        <mxCell id="nWNgb4miwz-LYuUAV93a-17" value="건강" style="shape=partialRectangle;connectable=0;fillColor=none;top=0;left=0;bottom=0;right=0;align=left;spacingLeft=6;overflow=hidden;whiteSpace=wrap;html=1;" vertex="1" parent="nWNgb4miwz-LYuUAV93a-15">
          <mxGeometry x="46.24137931034471" width="143.7586206896553" height="30" as="geometry">
            <mxRectangle width="143.7586206896553" height="30" as="alternateBounds" />
          </mxGeometry>
        </mxCell>
        <mxCell id="nWNgb4miwz-LYuUAV93a-18" value="건물" style="shape=table;startSize=30;container=1;collapsible=1;childLayout=tableLayout;fixedRows=1;rowLines=0;fontStyle=1;align=center;resizeLast=1;html=1;fillColor=#dae8fc;strokeColor=#6c8ebf;gradientColor=#7ea6e0;" vertex="1" parent="1">
          <mxGeometry x="32" y="337" width="190" height="160" as="geometry" />
        </mxCell>
        <mxCell id="nWNgb4miwz-LYuUAV93a-19" value="" style="shape=tableRow;horizontal=0;startSize=0;swimlaneHead=0;swimlaneBody=0;fillColor=none;collapsible=0;dropTarget=0;points=[[0,0.5],[1,0.5]];portConstraint=eastwest;top=0;left=0;right=0;bottom=1;" vertex="1" parent="nWNgb4miwz-LYuUAV93a-18">
          <mxGeometry y="30" width="190" height="26" as="geometry" />
        </mxCell>
        <mxCell id="nWNgb4miwz-LYuUAV93a-20" value="기본키" style="shape=partialRectangle;connectable=0;fillColor=none;top=0;left=0;bottom=0;right=0;fontStyle=1;overflow=hidden;whiteSpace=wrap;html=1;" vertex="1" parent="nWNgb4miwz-LYuUAV93a-19">
          <mxGeometry width="46.24137931034471" height="26" as="geometry">
            <mxRectangle width="46.24137931034471" height="26" as="alternateBounds" />
          </mxGeometry>
        </mxCell>
        <mxCell id="nWNgb4miwz-LYuUAV93a-21" value="BuildingID" style="shape=partialRectangle;connectable=0;fillColor=none;top=0;left=0;bottom=0;right=0;align=left;spacingLeft=6;fontStyle=5;overflow=hidden;whiteSpace=wrap;html=1;" vertex="1" parent="nWNgb4miwz-LYuUAV93a-19">
          <mxGeometry x="46.24137931034471" width="143.7586206896553" height="26" as="geometry">
            <mxRectangle width="143.7586206896553" height="26" as="alternateBounds" />
          </mxGeometry>
        </mxCell>
        <mxCell id="nWNgb4miwz-LYuUAV93a-22" value="" style="shape=tableRow;horizontal=0;startSize=0;swimlaneHead=0;swimlaneBody=0;fillColor=none;collapsible=0;dropTarget=0;points=[[0,0.5],[1,0.5]];portConstraint=eastwest;top=0;left=0;right=0;bottom=0;" vertex="1" parent="nWNgb4miwz-LYuUAV93a-18">
          <mxGeometry y="56" width="190" height="34" as="geometry" />
        </mxCell>
        <mxCell id="nWNgb4miwz-LYuUAV93a-23" value="" style="shape=partialRectangle;connectable=0;fillColor=none;top=0;left=0;bottom=0;right=0;editable=1;overflow=hidden;whiteSpace=wrap;html=1;" vertex="1" parent="nWNgb4miwz-LYuUAV93a-22">
          <mxGeometry width="46.24137931034471" height="34" as="geometry">
            <mxRectangle width="46.24137931034471" height="34" as="alternateBounds" />
          </mxGeometry>
        </mxCell>
        <mxCell id="nWNgb4miwz-LYuUAV93a-24" value="유형" style="shape=partialRectangle;connectable=0;fillColor=none;top=0;left=0;bottom=0;right=0;align=left;spacingLeft=6;overflow=hidden;whiteSpace=wrap;html=1;" vertex="1" parent="nWNgb4miwz-LYuUAV93a-22">
          <mxGeometry x="46.24137931034471" width="143.7586206896553" height="34" as="geometry">
            <mxRectangle width="143.7586206896553" height="34" as="alternateBounds" />
          </mxGeometry>
        </mxCell>
        <mxCell id="nWNgb4miwz-LYuUAV93a-25" value="" style="shape=tableRow;horizontal=0;startSize=0;swimlaneHead=0;swimlaneBody=0;fillColor=none;collapsible=0;dropTarget=0;points=[[0,0.5],[1,0.5]];portConstraint=eastwest;top=0;left=0;right=0;bottom=0;" vertex="1" parent="nWNgb4miwz-LYuUAV93a-18">
          <mxGeometry y="90" width="190" height="30" as="geometry" />
        </mxCell>
        <mxCell id="nWNgb4miwz-LYuUAV93a-26" value="" style="shape=partialRectangle;connectable=0;fillColor=none;top=0;left=0;bottom=0;right=0;editable=1;overflow=hidden;whiteSpace=wrap;html=1;" vertex="1" parent="nWNgb4miwz-LYuUAV93a-25">
          <mxGeometry width="46.24137931034471" height="30" as="geometry">
            <mxRectangle width="46.24137931034471" height="30" as="alternateBounds" />
          </mxGeometry>
        </mxCell>
        <mxCell id="nWNgb4miwz-LYuUAV93a-27" value="자재" style="shape=partialRectangle;connectable=0;fillColor=none;top=0;left=0;bottom=0;right=0;align=left;spacingLeft=6;overflow=hidden;whiteSpace=wrap;html=1;" vertex="1" parent="nWNgb4miwz-LYuUAV93a-25">
          <mxGeometry x="46.24137931034471" width="143.7586206896553" height="30" as="geometry">
            <mxRectangle width="143.7586206896553" height="30" as="alternateBounds" />
          </mxGeometry>
        </mxCell>
        <mxCell id="nWNgb4miwz-LYuUAV93a-28" value="" style="shape=tableRow;horizontal=0;startSize=0;swimlaneHead=0;swimlaneBody=0;fillColor=none;collapsible=0;dropTarget=0;points=[[0,0.5],[1,0.5]];portConstraint=eastwest;top=0;left=0;right=0;bottom=0;" vertex="1" parent="nWNgb4miwz-LYuUAV93a-18">
          <mxGeometry y="120" width="190" height="30" as="geometry" />
        </mxCell>
        <mxCell id="nWNgb4miwz-LYuUAV93a-29" value="" style="shape=partialRectangle;connectable=0;fillColor=none;top=0;left=0;bottom=0;right=0;editable=1;overflow=hidden;whiteSpace=wrap;html=1;" vertex="1" parent="nWNgb4miwz-LYuUAV93a-28">
          <mxGeometry width="46.24137931034471" height="30" as="geometry">
            <mxRectangle width="46.24137931034471" height="30" as="alternateBounds" />
          </mxGeometry>
        </mxCell>
        <mxCell id="nWNgb4miwz-LYuUAV93a-30" value="상태" style="shape=partialRectangle;connectable=0;fillColor=none;top=0;left=0;bottom=0;right=0;align=left;spacingLeft=6;overflow=hidden;whiteSpace=wrap;html=1;" vertex="1" parent="nWNgb4miwz-LYuUAV93a-28">
          <mxGeometry x="46.24137931034471" width="143.7586206896553" height="30" as="geometry">
            <mxRectangle width="143.7586206896553" height="30" as="alternateBounds" />
          </mxGeometry>
        </mxCell>
        <mxCell id="nWNgb4miwz-LYuUAV93a-34" value="아이템" style="shape=table;startSize=30;container=1;collapsible=1;childLayout=tableLayout;fixedRows=1;rowLines=0;fontStyle=1;align=center;resizeLast=1;html=1;fillColor=#dae8fc;strokeColor=#6c8ebf;gradientColor=#7ea6e0;" vertex="1" parent="1">
          <mxGeometry x="32" y="524" width="190" height="160" as="geometry" />
        </mxCell>
        <mxCell id="nWNgb4miwz-LYuUAV93a-35" value="" style="shape=tableRow;horizontal=0;startSize=0;swimlaneHead=0;swimlaneBody=0;fillColor=none;collapsible=0;dropTarget=0;points=[[0,0.5],[1,0.5]];portConstraint=eastwest;top=0;left=0;right=0;bottom=1;" vertex="1" parent="nWNgb4miwz-LYuUAV93a-34">
          <mxGeometry y="30" width="190" height="30" as="geometry" />
        </mxCell>
        <mxCell id="nWNgb4miwz-LYuUAV93a-36" value="기본키" style="shape=partialRectangle;connectable=0;fillColor=none;top=0;left=0;bottom=0;right=0;fontStyle=1;overflow=hidden;whiteSpace=wrap;html=1;" vertex="1" parent="nWNgb4miwz-LYuUAV93a-35">
          <mxGeometry width="46.24137931034471" height="30" as="geometry">
            <mxRectangle width="46.24137931034471" height="30" as="alternateBounds" />
          </mxGeometry>
        </mxCell>
        <mxCell id="nWNgb4miwz-LYuUAV93a-37" value="ItemID" style="shape=partialRectangle;connectable=0;fillColor=none;top=0;left=0;bottom=0;right=0;align=left;spacingLeft=6;fontStyle=5;overflow=hidden;whiteSpace=wrap;html=1;" vertex="1" parent="nWNgb4miwz-LYuUAV93a-35">
          <mxGeometry x="46.24137931034471" width="143.7586206896553" height="30" as="geometry">
            <mxRectangle width="143.7586206896553" height="30" as="alternateBounds" />
          </mxGeometry>
        </mxCell>
        <mxCell id="nWNgb4miwz-LYuUAV93a-38" value="" style="shape=tableRow;horizontal=0;startSize=0;swimlaneHead=0;swimlaneBody=0;fillColor=none;collapsible=0;dropTarget=0;points=[[0,0.5],[1,0.5]];portConstraint=eastwest;top=0;left=0;right=0;bottom=0;" vertex="1" parent="nWNgb4miwz-LYuUAV93a-34">
          <mxGeometry y="60" width="190" height="30" as="geometry" />
        </mxCell>
        <mxCell id="nWNgb4miwz-LYuUAV93a-39" value="" style="shape=partialRectangle;connectable=0;fillColor=none;top=0;left=0;bottom=0;right=0;editable=1;overflow=hidden;whiteSpace=wrap;html=1;" vertex="1" parent="nWNgb4miwz-LYuUAV93a-38">
          <mxGeometry width="46.24137931034471" height="30" as="geometry">
            <mxRectangle width="46.24137931034471" height="30" as="alternateBounds" />
          </mxGeometry>
        </mxCell>
        <mxCell id="nWNgb4miwz-LYuUAV93a-40" value="이름" style="shape=partialRectangle;connectable=0;fillColor=none;top=0;left=0;bottom=0;right=0;align=left;spacingLeft=6;overflow=hidden;whiteSpace=wrap;html=1;" vertex="1" parent="nWNgb4miwz-LYuUAV93a-38">
          <mxGeometry x="46.24137931034471" width="143.7586206896553" height="30" as="geometry">
            <mxRectangle width="143.7586206896553" height="30" as="alternateBounds" />
          </mxGeometry>
        </mxCell>
        <mxCell id="nWNgb4miwz-LYuUAV93a-41" value="" style="shape=tableRow;horizontal=0;startSize=0;swimlaneHead=0;swimlaneBody=0;fillColor=none;collapsible=0;dropTarget=0;points=[[0,0.5],[1,0.5]];portConstraint=eastwest;top=0;left=0;right=0;bottom=0;" vertex="1" parent="nWNgb4miwz-LYuUAV93a-34">
          <mxGeometry y="90" width="190" height="30" as="geometry" />
        </mxCell>
        <mxCell id="nWNgb4miwz-LYuUAV93a-42" value="" style="shape=partialRectangle;connectable=0;fillColor=none;top=0;left=0;bottom=0;right=0;editable=1;overflow=hidden;whiteSpace=wrap;html=1;" vertex="1" parent="nWNgb4miwz-LYuUAV93a-41">
          <mxGeometry width="46.24137931034471" height="30" as="geometry">
            <mxRectangle width="46.24137931034471" height="30" as="alternateBounds" />
          </mxGeometry>
        </mxCell>
        <mxCell id="nWNgb4miwz-LYuUAV93a-43" value="유형" style="shape=partialRectangle;connectable=0;fillColor=none;top=0;left=0;bottom=0;right=0;align=left;spacingLeft=6;overflow=hidden;whiteSpace=wrap;html=1;" vertex="1" parent="nWNgb4miwz-LYuUAV93a-41">
          <mxGeometry x="46.24137931034471" width="143.7586206896553" height="30" as="geometry">
            <mxRectangle width="143.7586206896553" height="30" as="alternateBounds" />
          </mxGeometry>
        </mxCell>
        <mxCell id="nWNgb4miwz-LYuUAV93a-44" value="" style="shape=tableRow;horizontal=0;startSize=0;swimlaneHead=0;swimlaneBody=0;fillColor=none;collapsible=0;dropTarget=0;points=[[0,0.5],[1,0.5]];portConstraint=eastwest;top=0;left=0;right=0;bottom=0;" vertex="1" parent="nWNgb4miwz-LYuUAV93a-34">
          <mxGeometry y="120" width="190" height="30" as="geometry" />
        </mxCell>
        <mxCell id="nWNgb4miwz-LYuUAV93a-45" value="" style="shape=partialRectangle;connectable=0;fillColor=none;top=0;left=0;bottom=0;right=0;editable=1;overflow=hidden;whiteSpace=wrap;html=1;" vertex="1" parent="nWNgb4miwz-LYuUAV93a-44">
          <mxGeometry width="46.24137931034471" height="30" as="geometry">
            <mxRectangle width="46.24137931034471" height="30" as="alternateBounds" />
          </mxGeometry>
        </mxCell>
        <mxCell id="nWNgb4miwz-LYuUAV93a-46" value="품질" style="shape=partialRectangle;connectable=0;fillColor=none;top=0;left=0;bottom=0;right=0;align=left;spacingLeft=6;overflow=hidden;whiteSpace=wrap;html=1;" vertex="1" parent="nWNgb4miwz-LYuUAV93a-44">
          <mxGeometry x="46.24137931034471" width="143.7586206896553" height="30" as="geometry">
            <mxRectangle width="143.7586206896553" height="30" as="alternateBounds" />
          </mxGeometry>
        </mxCell>
        <mxCell id="nWNgb4miwz-LYuUAV93a-47" value="이벤트" style="shape=table;startSize=30;container=1;collapsible=1;childLayout=tableLayout;fixedRows=1;rowLines=0;fontStyle=1;align=center;resizeLast=1;html=1;fillColor=#dae8fc;strokeColor=#6c8ebf;gradientColor=#7ea6e0;" vertex="1" parent="1">
          <mxGeometry x="32" y="702" width="190" height="130" as="geometry" />
        </mxCell>
        <mxCell id="nWNgb4miwz-LYuUAV93a-48" value="" style="shape=tableRow;horizontal=0;startSize=0;swimlaneHead=0;swimlaneBody=0;fillColor=none;collapsible=0;dropTarget=0;points=[[0,0.5],[1,0.5]];portConstraint=eastwest;top=0;left=0;right=0;bottom=1;" vertex="1" parent="nWNgb4miwz-LYuUAV93a-47">
          <mxGeometry y="30" width="190" height="30" as="geometry" />
        </mxCell>
        <mxCell id="nWNgb4miwz-LYuUAV93a-49" value="기본키" style="shape=partialRectangle;connectable=0;fillColor=none;top=0;left=0;bottom=0;right=0;fontStyle=1;overflow=hidden;whiteSpace=wrap;html=1;" vertex="1" parent="nWNgb4miwz-LYuUAV93a-48">
          <mxGeometry width="46.62068965517261" height="30" as="geometry">
            <mxRectangle width="46.62068965517261" height="30" as="alternateBounds" />
          </mxGeometry>
        </mxCell>
        <mxCell id="nWNgb4miwz-LYuUAV93a-50" value="EventID" style="shape=partialRectangle;connectable=0;fillColor=none;top=0;left=0;bottom=0;right=0;align=left;spacingLeft=6;fontStyle=5;overflow=hidden;whiteSpace=wrap;html=1;" vertex="1" parent="nWNgb4miwz-LYuUAV93a-48">
          <mxGeometry x="46.62068965517261" width="143.3793103448274" height="30" as="geometry">
            <mxRectangle width="143.3793103448274" height="30" as="alternateBounds" />
          </mxGeometry>
        </mxCell>
        <mxCell id="nWNgb4miwz-LYuUAV93a-51" value="" style="shape=tableRow;horizontal=0;startSize=0;swimlaneHead=0;swimlaneBody=0;fillColor=none;collapsible=0;dropTarget=0;points=[[0,0.5],[1,0.5]];portConstraint=eastwest;top=0;left=0;right=0;bottom=0;" vertex="1" parent="nWNgb4miwz-LYuUAV93a-47">
          <mxGeometry y="60" width="190" height="30" as="geometry" />
        </mxCell>
        <mxCell id="nWNgb4miwz-LYuUAV93a-52" value="" style="shape=partialRectangle;connectable=0;fillColor=none;top=0;left=0;bottom=0;right=0;editable=1;overflow=hidden;whiteSpace=wrap;html=1;" vertex="1" parent="nWNgb4miwz-LYuUAV93a-51">
          <mxGeometry width="46.62068965517261" height="30" as="geometry">
            <mxRectangle width="46.62068965517261" height="30" as="alternateBounds" />
          </mxGeometry>
        </mxCell>
        <mxCell id="nWNgb4miwz-LYuUAV93a-53" value="유형" style="shape=partialRectangle;connectable=0;fillColor=none;top=0;left=0;bottom=0;right=0;align=left;spacingLeft=6;overflow=hidden;whiteSpace=wrap;html=1;" vertex="1" parent="nWNgb4miwz-LYuUAV93a-51">
          <mxGeometry x="46.62068965517261" width="143.3793103448274" height="30" as="geometry">
            <mxRectangle width="143.3793103448274" height="30" as="alternateBounds" />
          </mxGeometry>
        </mxCell>
        <mxCell id="nWNgb4miwz-LYuUAV93a-54" value="" style="shape=tableRow;horizontal=0;startSize=0;swimlaneHead=0;swimlaneBody=0;fillColor=none;collapsible=0;dropTarget=0;points=[[0,0.5],[1,0.5]];portConstraint=eastwest;top=0;left=0;right=0;bottom=0;" vertex="1" parent="nWNgb4miwz-LYuUAV93a-47">
          <mxGeometry y="90" width="190" height="30" as="geometry" />
        </mxCell>
        <mxCell id="nWNgb4miwz-LYuUAV93a-55" value="" style="shape=partialRectangle;connectable=0;fillColor=none;top=0;left=0;bottom=0;right=0;editable=1;overflow=hidden;whiteSpace=wrap;html=1;" vertex="1" parent="nWNgb4miwz-LYuUAV93a-54">
          <mxGeometry width="46.62068965517261" height="30" as="geometry">
            <mxRectangle width="46.62068965517261" height="30" as="alternateBounds" />
          </mxGeometry>
        </mxCell>
        <mxCell id="nWNgb4miwz-LYuUAV93a-56" value="기간" style="shape=partialRectangle;connectable=0;fillColor=none;top=0;left=0;bottom=0;right=0;align=left;spacingLeft=6;overflow=hidden;whiteSpace=wrap;html=1;" vertex="1" parent="nWNgb4miwz-LYuUAV93a-54">
          <mxGeometry x="46.62068965517261" width="143.3793103448274" height="30" as="geometry">
            <mxRectangle width="143.3793103448274" height="30" as="alternateBounds" />
          </mxGeometry>
        </mxCell>
        <mxCell id="nWNgb4miwz-LYuUAV93a-63" value="동물" style="shape=table;startSize=30;container=1;collapsible=1;childLayout=tableLayout;fixedRows=1;rowLines=0;fontStyle=1;align=center;resizeLast=1;html=1;fillColor=#dae8fc;strokeColor=#6c8ebf;gradientColor=#7ea6e0;" vertex="1" parent="1">
          <mxGeometry x="32" y="852" width="190" height="190" as="geometry" />
        </mxCell>
        <mxCell id="nWNgb4miwz-LYuUAV93a-64" value="" style="shape=tableRow;horizontal=0;startSize=0;swimlaneHead=0;swimlaneBody=0;fillColor=none;collapsible=0;dropTarget=0;points=[[0,0.5],[1,0.5]];portConstraint=eastwest;top=0;left=0;right=0;bottom=1;" vertex="1" parent="nWNgb4miwz-LYuUAV93a-63">
          <mxGeometry y="30" width="190" height="30" as="geometry" />
        </mxCell>
        <mxCell id="nWNgb4miwz-LYuUAV93a-65" value="기본키" style="shape=partialRectangle;connectable=0;fillColor=none;top=0;left=0;bottom=0;right=0;fontStyle=1;overflow=hidden;whiteSpace=wrap;html=1;" vertex="1" parent="nWNgb4miwz-LYuUAV93a-64">
          <mxGeometry width="46.24137931034471" height="30" as="geometry">
            <mxRectangle width="46.24137931034471" height="30" as="alternateBounds" />
          </mxGeometry>
        </mxCell>
        <mxCell id="nWNgb4miwz-LYuUAV93a-66" value="AnimalID" style="shape=partialRectangle;connectable=0;fillColor=none;top=0;left=0;bottom=0;right=0;align=left;spacingLeft=6;fontStyle=5;overflow=hidden;whiteSpace=wrap;html=1;" vertex="1" parent="nWNgb4miwz-LYuUAV93a-64">
          <mxGeometry x="46.24137931034471" width="143.7586206896553" height="30" as="geometry">
            <mxRectangle width="143.7586206896553" height="30" as="alternateBounds" />
          </mxGeometry>
        </mxCell>
        <mxCell id="nWNgb4miwz-LYuUAV93a-67" value="" style="shape=tableRow;horizontal=0;startSize=0;swimlaneHead=0;swimlaneBody=0;fillColor=none;collapsible=0;dropTarget=0;points=[[0,0.5],[1,0.5]];portConstraint=eastwest;top=0;left=0;right=0;bottom=0;" vertex="1" parent="nWNgb4miwz-LYuUAV93a-63">
          <mxGeometry y="60" width="190" height="30" as="geometry" />
        </mxCell>
        <mxCell id="nWNgb4miwz-LYuUAV93a-68" value="" style="shape=partialRectangle;connectable=0;fillColor=none;top=0;left=0;bottom=0;right=0;editable=1;overflow=hidden;whiteSpace=wrap;html=1;" vertex="1" parent="nWNgb4miwz-LYuUAV93a-67">
          <mxGeometry width="46.24137931034471" height="30" as="geometry">
            <mxRectangle width="46.24137931034471" height="30" as="alternateBounds" />
          </mxGeometry>
        </mxCell>
        <mxCell id="nWNgb4miwz-LYuUAV93a-69" value="이름" style="shape=partialRectangle;connectable=0;fillColor=none;top=0;left=0;bottom=0;right=0;align=left;spacingLeft=6;overflow=hidden;whiteSpace=wrap;html=1;" vertex="1" parent="nWNgb4miwz-LYuUAV93a-67">
          <mxGeometry x="46.24137931034471" width="143.7586206896553" height="30" as="geometry">
            <mxRectangle width="143.7586206896553" height="30" as="alternateBounds" />
          </mxGeometry>
        </mxCell>
        <mxCell id="nWNgb4miwz-LYuUAV93a-70" value="" style="shape=tableRow;horizontal=0;startSize=0;swimlaneHead=0;swimlaneBody=0;fillColor=none;collapsible=0;dropTarget=0;points=[[0,0.5],[1,0.5]];portConstraint=eastwest;top=0;left=0;right=0;bottom=0;" vertex="1" parent="nWNgb4miwz-LYuUAV93a-63">
          <mxGeometry y="90" width="190" height="30" as="geometry" />
        </mxCell>
        <mxCell id="nWNgb4miwz-LYuUAV93a-71" value="" style="shape=partialRectangle;connectable=0;fillColor=none;top=0;left=0;bottom=0;right=0;editable=1;overflow=hidden;whiteSpace=wrap;html=1;" vertex="1" parent="nWNgb4miwz-LYuUAV93a-70">
          <mxGeometry width="46.24137931034471" height="30" as="geometry">
            <mxRectangle width="46.24137931034471" height="30" as="alternateBounds" />
          </mxGeometry>
        </mxCell>
        <mxCell id="nWNgb4miwz-LYuUAV93a-72" value="나이" style="shape=partialRectangle;connectable=0;fillColor=none;top=0;left=0;bottom=0;right=0;align=left;spacingLeft=6;overflow=hidden;whiteSpace=wrap;html=1;" vertex="1" parent="nWNgb4miwz-LYuUAV93a-70">
          <mxGeometry x="46.24137931034471" width="143.7586206896553" height="30" as="geometry">
            <mxRectangle width="143.7586206896553" height="30" as="alternateBounds" />
          </mxGeometry>
        </mxCell>
        <mxCell id="nWNgb4miwz-LYuUAV93a-73" value="" style="shape=tableRow;horizontal=0;startSize=0;swimlaneHead=0;swimlaneBody=0;fillColor=none;collapsible=0;dropTarget=0;points=[[0,0.5],[1,0.5]];portConstraint=eastwest;top=0;left=0;right=0;bottom=0;" vertex="1" parent="nWNgb4miwz-LYuUAV93a-63">
          <mxGeometry y="120" width="190" height="30" as="geometry" />
        </mxCell>
        <mxCell id="nWNgb4miwz-LYuUAV93a-74" value="" style="shape=partialRectangle;connectable=0;fillColor=none;top=0;left=0;bottom=0;right=0;editable=1;overflow=hidden;whiteSpace=wrap;html=1;" vertex="1" parent="nWNgb4miwz-LYuUAV93a-73">
          <mxGeometry width="46.24137931034471" height="30" as="geometry">
            <mxRectangle width="46.24137931034471" height="30" as="alternateBounds" />
          </mxGeometry>
        </mxCell>
        <mxCell id="nWNgb4miwz-LYuUAV93a-75" value="성별" style="shape=partialRectangle;connectable=0;fillColor=none;top=0;left=0;bottom=0;right=0;align=left;spacingLeft=6;overflow=hidden;whiteSpace=wrap;html=1;" vertex="1" parent="nWNgb4miwz-LYuUAV93a-73">
          <mxGeometry x="46.24137931034471" width="143.7586206896553" height="30" as="geometry">
            <mxRectangle width="143.7586206896553" height="30" as="alternateBounds" />
          </mxGeometry>
        </mxCell>
        <mxCell id="nWNgb4miwz-LYuUAV93a-76" value="" style="shape=tableRow;horizontal=0;startSize=0;swimlaneHead=0;swimlaneBody=0;fillColor=none;collapsible=0;dropTarget=0;points=[[0,0.5],[1,0.5]];portConstraint=eastwest;top=0;left=0;right=0;bottom=0;" vertex="1" parent="nWNgb4miwz-LYuUAV93a-63">
          <mxGeometry y="150" width="190" height="30" as="geometry" />
        </mxCell>
        <mxCell id="nWNgb4miwz-LYuUAV93a-77" value="" style="shape=partialRectangle;connectable=0;fillColor=none;top=0;left=0;bottom=0;right=0;editable=1;overflow=hidden;whiteSpace=wrap;html=1;" vertex="1" parent="nWNgb4miwz-LYuUAV93a-76">
          <mxGeometry width="46.24137931034471" height="30" as="geometry">
            <mxRectangle width="46.24137931034471" height="30" as="alternateBounds" />
          </mxGeometry>
        </mxCell>
        <mxCell id="nWNgb4miwz-LYuUAV93a-78" value="건강" style="shape=partialRectangle;connectable=0;fillColor=none;top=0;left=0;bottom=0;right=0;align=left;spacingLeft=6;overflow=hidden;whiteSpace=wrap;html=1;" vertex="1" parent="nWNgb4miwz-LYuUAV93a-76">
          <mxGeometry x="46.24137931034471" width="143.7586206896553" height="30" as="geometry">
            <mxRectangle width="143.7586206896553" height="30" as="alternateBounds" />
          </mxGeometry>
        </mxCell>
        <mxCell id="nWNgb4miwz-LYuUAV93a-100" style="edgeStyle=orthogonalEdgeStyle;rounded=0;orthogonalLoop=1;jettySize=auto;html=1;entryX=1;entryY=0.5;entryDx=0;entryDy=0;spacingTop=0;strokeWidth=3;fillColor=#dae8fc;gradientColor=#7ea6e0;strokeColor=#6c8ebf;" edge="1" parent="1" source="nWNgb4miwz-LYuUAV93a-85" target="nWNgb4miwz-LYuUAV93a-2">
          <mxGeometry relative="1" as="geometry">
            <Array as="points">
              <mxPoint x="553" y="126" />
              <mxPoint x="553" y="96" />
            </Array>
          </mxGeometry>
        </mxCell>
        <mxCell id="nWNgb4miwz-LYuUAV93a-85" value="정착민의 기술" style="shape=table;startSize=30;container=1;collapsible=1;childLayout=tableLayout;fixedRows=1;rowLines=0;fontStyle=1;align=center;resizeLast=1;html=1;whiteSpace=wrap;fillColor=#dae8fc;gradientColor=#7ea6e0;strokeColor=#6c8ebf;" vertex="1" parent="1">
          <mxGeometry x="591" y="44" width="180" height="150" as="geometry" />
        </mxCell>
        <mxCell id="nWNgb4miwz-LYuUAV93a-86" value="" style="shape=tableRow;horizontal=0;startSize=0;swimlaneHead=0;swimlaneBody=0;fillColor=none;collapsible=0;dropTarget=0;points=[[0,0.5],[1,0.5]];portConstraint=eastwest;top=0;left=0;right=0;bottom=0;html=1;" vertex="1" parent="nWNgb4miwz-LYuUAV93a-85">
          <mxGeometry y="30" width="180" height="30" as="geometry" />
        </mxCell>
        <mxCell id="nWNgb4miwz-LYuUAV93a-87" value="기본키" style="shape=partialRectangle;connectable=0;fillColor=none;top=0;left=0;bottom=0;right=0;fontStyle=1;overflow=hidden;html=1;whiteSpace=wrap;" vertex="1" parent="nWNgb4miwz-LYuUAV93a-86">
          <mxGeometry width="60" height="30" as="geometry">
            <mxRectangle width="60" height="30" as="alternateBounds" />
          </mxGeometry>
        </mxCell>
        <mxCell id="nWNgb4miwz-LYuUAV93a-88" value="SkillID" style="shape=partialRectangle;connectable=0;fillColor=none;top=0;left=0;bottom=0;right=0;align=left;spacingLeft=6;fontStyle=5;overflow=hidden;html=1;whiteSpace=wrap;" vertex="1" parent="nWNgb4miwz-LYuUAV93a-86">
          <mxGeometry x="60" width="120" height="30" as="geometry">
            <mxRectangle width="120" height="30" as="alternateBounds" />
          </mxGeometry>
        </mxCell>
        <mxCell id="nWNgb4miwz-LYuUAV93a-89" value="" style="shape=tableRow;horizontal=0;startSize=0;swimlaneHead=0;swimlaneBody=0;fillColor=none;collapsible=0;dropTarget=0;points=[[0,0.5],[1,0.5]];portConstraint=eastwest;top=0;left=0;right=0;bottom=1;html=1;" vertex="1" parent="nWNgb4miwz-LYuUAV93a-85">
          <mxGeometry y="60" width="180" height="30" as="geometry" />
        </mxCell>
        <mxCell id="nWNgb4miwz-LYuUAV93a-90" value="외래키" style="shape=partialRectangle;connectable=0;fillColor=none;top=0;left=0;bottom=0;right=0;fontStyle=1;overflow=hidden;html=1;whiteSpace=wrap;" vertex="1" parent="nWNgb4miwz-LYuUAV93a-89">
          <mxGeometry width="60" height="30" as="geometry">
            <mxRectangle width="60" height="30" as="alternateBounds" />
          </mxGeometry>
        </mxCell>
        <mxCell id="nWNgb4miwz-LYuUAV93a-91" value="ColonistID" style="shape=partialRectangle;connectable=0;fillColor=none;top=0;left=0;bottom=0;right=0;align=left;spacingLeft=6;fontStyle=1;overflow=hidden;html=1;whiteSpace=wrap;" vertex="1" parent="nWNgb4miwz-LYuUAV93a-89">
          <mxGeometry x="60" width="120" height="30" as="geometry">
            <mxRectangle width="120" height="30" as="alternateBounds" />
          </mxGeometry>
        </mxCell>
        <mxCell id="nWNgb4miwz-LYuUAV93a-92" value="" style="shape=tableRow;horizontal=0;startSize=0;swimlaneHead=0;swimlaneBody=0;fillColor=none;collapsible=0;dropTarget=0;points=[[0,0.5],[1,0.5]];portConstraint=eastwest;top=0;left=0;right=0;bottom=0;html=1;" vertex="1" parent="nWNgb4miwz-LYuUAV93a-85">
          <mxGeometry y="90" width="180" height="30" as="geometry" />
        </mxCell>
        <mxCell id="nWNgb4miwz-LYuUAV93a-93" value="" style="shape=partialRectangle;connectable=0;fillColor=none;top=0;left=0;bottom=0;right=0;editable=1;overflow=hidden;html=1;whiteSpace=wrap;" vertex="1" parent="nWNgb4miwz-LYuUAV93a-92">
          <mxGeometry width="60" height="30" as="geometry">
            <mxRectangle width="60" height="30" as="alternateBounds" />
          </mxGeometry>
        </mxCell>
        <mxCell id="nWNgb4miwz-LYuUAV93a-94" value="이름" style="shape=partialRectangle;connectable=0;fillColor=none;top=0;left=0;bottom=0;right=0;align=left;spacingLeft=6;overflow=hidden;html=1;whiteSpace=wrap;" vertex="1" parent="nWNgb4miwz-LYuUAV93a-92">
          <mxGeometry x="60" width="120" height="30" as="geometry">
            <mxRectangle width="120" height="30" as="alternateBounds" />
          </mxGeometry>
        </mxCell>
        <mxCell id="nWNgb4miwz-LYuUAV93a-95" value="" style="shape=tableRow;horizontal=0;startSize=0;swimlaneHead=0;swimlaneBody=0;fillColor=none;collapsible=0;dropTarget=0;points=[[0,0.5],[1,0.5]];portConstraint=eastwest;top=0;left=0;right=0;bottom=0;html=1;" vertex="1" parent="nWNgb4miwz-LYuUAV93a-85">
          <mxGeometry y="120" width="180" height="30" as="geometry" />
        </mxCell>
        <mxCell id="nWNgb4miwz-LYuUAV93a-96" value="" style="shape=partialRectangle;connectable=0;fillColor=none;top=0;left=0;bottom=0;right=0;editable=1;overflow=hidden;html=1;whiteSpace=wrap;" vertex="1" parent="nWNgb4miwz-LYuUAV93a-95">
          <mxGeometry width="60" height="30" as="geometry">
            <mxRectangle width="60" height="30" as="alternateBounds" />
          </mxGeometry>
        </mxCell>
        <mxCell id="nWNgb4miwz-LYuUAV93a-97" value="기술 레벨" style="shape=partialRectangle;connectable=0;fillColor=none;top=0;left=0;bottom=0;right=0;align=left;spacingLeft=6;overflow=hidden;html=1;whiteSpace=wrap;" vertex="1" parent="nWNgb4miwz-LYuUAV93a-95">
          <mxGeometry x="60" width="120" height="30" as="geometry">
            <mxRectangle width="120" height="30" as="alternateBounds" />
          </mxGeometry>
        </mxCell>
        <mxCell id="nWNgb4miwz-LYuUAV93a-104" value="정착민의 성격" style="shape=table;startSize=30;container=1;collapsible=1;childLayout=tableLayout;fixedRows=1;rowLines=0;fontStyle=1;align=center;resizeLast=1;html=1;whiteSpace=wrap;fillColor=#dae8fc;gradientColor=#7ea6e0;strokeColor=#6c8ebf;" vertex="1" parent="1">
          <mxGeometry x="591" y="207" width="180" height="180" as="geometry" />
        </mxCell>
        <mxCell id="nWNgb4miwz-LYuUAV93a-105" value="" style="shape=tableRow;horizontal=0;startSize=0;swimlaneHead=0;swimlaneBody=0;fillColor=none;collapsible=0;dropTarget=0;points=[[0,0.5],[1,0.5]];portConstraint=eastwest;top=0;left=0;right=0;bottom=0;html=1;" vertex="1" parent="nWNgb4miwz-LYuUAV93a-104">
          <mxGeometry y="30" width="180" height="30" as="geometry" />
        </mxCell>
        <mxCell id="nWNgb4miwz-LYuUAV93a-106" value="기본키" style="shape=partialRectangle;connectable=0;fillColor=none;top=0;left=0;bottom=0;right=0;fontStyle=1;overflow=hidden;html=1;whiteSpace=wrap;" vertex="1" parent="nWNgb4miwz-LYuUAV93a-105">
          <mxGeometry width="60" height="30" as="geometry">
            <mxRectangle width="60" height="30" as="alternateBounds" />
          </mxGeometry>
        </mxCell>
        <mxCell id="nWNgb4miwz-LYuUAV93a-107" value="PersonailityID" style="shape=partialRectangle;connectable=0;fillColor=none;top=0;left=0;bottom=0;right=0;align=left;spacingLeft=6;fontStyle=5;overflow=hidden;html=1;whiteSpace=wrap;" vertex="1" parent="nWNgb4miwz-LYuUAV93a-105">
          <mxGeometry x="60" width="120" height="30" as="geometry">
            <mxRectangle width="120" height="30" as="alternateBounds" />
          </mxGeometry>
        </mxCell>
        <mxCell id="nWNgb4miwz-LYuUAV93a-108" value="" style="shape=tableRow;horizontal=0;startSize=0;swimlaneHead=0;swimlaneBody=0;fillColor=none;collapsible=0;dropTarget=0;points=[[0,0.5],[1,0.5]];portConstraint=eastwest;top=0;left=0;right=0;bottom=1;html=1;" vertex="1" parent="nWNgb4miwz-LYuUAV93a-104">
          <mxGeometry y="60" width="180" height="30" as="geometry" />
        </mxCell>
        <mxCell id="nWNgb4miwz-LYuUAV93a-109" value="외래키" style="shape=partialRectangle;connectable=0;fillColor=none;top=0;left=0;bottom=0;right=0;fontStyle=1;overflow=hidden;html=1;whiteSpace=wrap;" vertex="1" parent="nWNgb4miwz-LYuUAV93a-108">
          <mxGeometry width="60" height="30" as="geometry">
            <mxRectangle width="60" height="30" as="alternateBounds" />
          </mxGeometry>
        </mxCell>
        <mxCell id="nWNgb4miwz-LYuUAV93a-110" value="ColonistID" style="shape=partialRectangle;connectable=0;fillColor=none;top=0;left=0;bottom=0;right=0;align=left;spacingLeft=6;fontStyle=1;overflow=hidden;html=1;whiteSpace=wrap;" vertex="1" parent="nWNgb4miwz-LYuUAV93a-108">
          <mxGeometry x="60" width="120" height="30" as="geometry">
            <mxRectangle width="120" height="30" as="alternateBounds" />
          </mxGeometry>
        </mxCell>
        <mxCell id="nWNgb4miwz-LYuUAV93a-111" value="" style="shape=tableRow;horizontal=0;startSize=0;swimlaneHead=0;swimlaneBody=0;fillColor=none;collapsible=0;dropTarget=0;points=[[0,0.5],[1,0.5]];portConstraint=eastwest;top=0;left=0;right=0;bottom=0;html=1;" vertex="1" parent="nWNgb4miwz-LYuUAV93a-104">
          <mxGeometry y="90" width="180" height="30" as="geometry" />
        </mxCell>
        <mxCell id="nWNgb4miwz-LYuUAV93a-112" value="" style="shape=partialRectangle;connectable=0;fillColor=none;top=0;left=0;bottom=0;right=0;editable=1;overflow=hidden;html=1;whiteSpace=wrap;" vertex="1" parent="nWNgb4miwz-LYuUAV93a-111">
          <mxGeometry width="60" height="30" as="geometry">
            <mxRectangle width="60" height="30" as="alternateBounds" />
          </mxGeometry>
        </mxCell>
        <mxCell id="nWNgb4miwz-LYuUAV93a-113" value="이름" style="shape=partialRectangle;connectable=0;fillColor=none;top=0;left=0;bottom=0;right=0;align=left;spacingLeft=6;overflow=hidden;html=1;whiteSpace=wrap;" vertex="1" parent="nWNgb4miwz-LYuUAV93a-111">
          <mxGeometry x="60" width="120" height="30" as="geometry">
            <mxRectangle width="120" height="30" as="alternateBounds" />
          </mxGeometry>
        </mxCell>
        <mxCell id="nWNgb4miwz-LYuUAV93a-121" value="" style="shape=tableRow;horizontal=0;startSize=0;swimlaneHead=0;swimlaneBody=0;fillColor=none;collapsible=0;dropTarget=0;points=[[0,0.5],[1,0.5]];portConstraint=eastwest;top=0;left=0;right=0;bottom=0;html=1;" vertex="1" parent="nWNgb4miwz-LYuUAV93a-104">
          <mxGeometry y="120" width="180" height="30" as="geometry" />
        </mxCell>
        <mxCell id="nWNgb4miwz-LYuUAV93a-122" value="" style="shape=partialRectangle;connectable=0;fillColor=none;top=0;left=0;bottom=0;right=0;editable=1;overflow=hidden;html=1;whiteSpace=wrap;" vertex="1" parent="nWNgb4miwz-LYuUAV93a-121">
          <mxGeometry width="60" height="30" as="geometry">
            <mxRectangle width="60" height="30" as="alternateBounds" />
          </mxGeometry>
        </mxCell>
        <mxCell id="nWNgb4miwz-LYuUAV93a-123" value="설명" style="shape=partialRectangle;connectable=0;fillColor=none;top=0;left=0;bottom=0;right=0;align=left;spacingLeft=6;overflow=hidden;html=1;whiteSpace=wrap;" vertex="1" parent="nWNgb4miwz-LYuUAV93a-121">
          <mxGeometry x="60" width="120" height="30" as="geometry">
            <mxRectangle width="120" height="30" as="alternateBounds" />
          </mxGeometry>
        </mxCell>
        <mxCell id="nWNgb4miwz-LYuUAV93a-114" value="" style="shape=tableRow;horizontal=0;startSize=0;swimlaneHead=0;swimlaneBody=0;fillColor=none;collapsible=0;dropTarget=0;points=[[0,0.5],[1,0.5]];portConstraint=eastwest;top=0;left=0;right=0;bottom=0;html=1;" vertex="1" parent="nWNgb4miwz-LYuUAV93a-104">
          <mxGeometry y="150" width="180" height="30" as="geometry" />
        </mxCell>
        <mxCell id="nWNgb4miwz-LYuUAV93a-115" value="" style="shape=partialRectangle;connectable=0;fillColor=none;top=0;left=0;bottom=0;right=0;editable=1;overflow=hidden;html=1;whiteSpace=wrap;" vertex="1" parent="nWNgb4miwz-LYuUAV93a-114">
          <mxGeometry width="60" height="30" as="geometry">
            <mxRectangle width="60" height="30" as="alternateBounds" />
          </mxGeometry>
        </mxCell>
        <mxCell id="nWNgb4miwz-LYuUAV93a-116" value="효과" style="shape=partialRectangle;connectable=0;fillColor=none;top=0;left=0;bottom=0;right=0;align=left;spacingLeft=6;overflow=hidden;html=1;whiteSpace=wrap;" vertex="1" parent="nWNgb4miwz-LYuUAV93a-114">
          <mxGeometry x="60" width="120" height="30" as="geometry">
            <mxRectangle width="120" height="30" as="alternateBounds" />
          </mxGeometry>
        </mxCell>
        <mxCell id="nWNgb4miwz-LYuUAV93a-117" style="edgeStyle=orthogonalEdgeStyle;rounded=0;orthogonalLoop=1;jettySize=auto;html=1;entryX=0.994;entryY=0.806;entryDx=0;entryDy=0;entryPerimeter=0;exitX=0;exitY=0.5;exitDx=0;exitDy=0;spacingTop=0;strokeWidth=3;fillColor=#d5e8d4;gradientColor=#97d077;strokeColor=#82b366;" edge="1" parent="1" source="nWNgb4miwz-LYuUAV93a-108" target="nWNgb4miwz-LYuUAV93a-2">
          <mxGeometry relative="1" as="geometry">
            <Array as="points">
              <mxPoint x="591" y="289" />
              <mxPoint x="526" y="289" />
              <mxPoint x="526" y="105" />
            </Array>
          </mxGeometry>
        </mxCell>
        <mxCell id="nWNgb4miwz-LYuUAV93a-146" value="건설/이용중인 정착민" style="shape=table;startSize=30;container=1;collapsible=1;childLayout=tableLayout;fixedRows=1;rowLines=0;fontStyle=1;align=center;resizeLast=1;html=1;whiteSpace=wrap;fillColor=#dae8fc;gradientColor=#7ea6e0;strokeColor=#6c8ebf;" vertex="1" parent="1">
          <mxGeometry x="591" y="410" width="180" height="90" as="geometry" />
        </mxCell>
        <mxCell id="nWNgb4miwz-LYuUAV93a-147" value="" style="shape=tableRow;horizontal=0;startSize=0;swimlaneHead=0;swimlaneBody=0;fillColor=none;collapsible=0;dropTarget=0;points=[[0,0.5],[1,0.5]];portConstraint=eastwest;top=0;left=0;right=0;bottom=0;html=1;" vertex="1" parent="nWNgb4miwz-LYuUAV93a-146">
          <mxGeometry y="30" width="180" height="30" as="geometry" />
        </mxCell>
        <mxCell id="nWNgb4miwz-LYuUAV93a-148" value="외래키" style="shape=partialRectangle;connectable=0;fillColor=none;top=0;left=0;bottom=0;right=0;fontStyle=1;overflow=hidden;html=1;whiteSpace=wrap;" vertex="1" parent="nWNgb4miwz-LYuUAV93a-147">
          <mxGeometry width="60" height="30" as="geometry">
            <mxRectangle width="60" height="30" as="alternateBounds" />
          </mxGeometry>
        </mxCell>
        <mxCell id="nWNgb4miwz-LYuUAV93a-149" value="BuildingID" style="shape=partialRectangle;connectable=0;fillColor=none;top=0;left=0;bottom=0;right=0;align=left;spacingLeft=6;fontStyle=1;overflow=hidden;html=1;whiteSpace=wrap;" vertex="1" parent="nWNgb4miwz-LYuUAV93a-147">
          <mxGeometry x="60" width="120" height="30" as="geometry">
            <mxRectangle width="120" height="30" as="alternateBounds" />
          </mxGeometry>
        </mxCell>
        <mxCell id="nWNgb4miwz-LYuUAV93a-150" value="" style="shape=tableRow;horizontal=0;startSize=0;swimlaneHead=0;swimlaneBody=0;fillColor=none;collapsible=0;dropTarget=0;points=[[0,0.5],[1,0.5]];portConstraint=eastwest;top=0;left=0;right=0;bottom=1;html=1;" vertex="1" parent="nWNgb4miwz-LYuUAV93a-146">
          <mxGeometry y="60" width="180" height="30" as="geometry" />
        </mxCell>
        <mxCell id="nWNgb4miwz-LYuUAV93a-151" value="외래키" style="shape=partialRectangle;connectable=0;fillColor=none;top=0;left=0;bottom=0;right=0;fontStyle=1;overflow=hidden;html=1;whiteSpace=wrap;" vertex="1" parent="nWNgb4miwz-LYuUAV93a-150">
          <mxGeometry width="60" height="30" as="geometry">
            <mxRectangle width="60" height="30" as="alternateBounds" />
          </mxGeometry>
        </mxCell>
        <mxCell id="nWNgb4miwz-LYuUAV93a-152" value="ColonistID" style="shape=partialRectangle;connectable=0;fillColor=none;top=0;left=0;bottom=0;right=0;align=left;spacingLeft=6;fontStyle=5;overflow=hidden;html=1;whiteSpace=wrap;" vertex="1" parent="nWNgb4miwz-LYuUAV93a-150">
          <mxGeometry x="60" width="120" height="30" as="geometry">
            <mxRectangle width="120" height="30" as="alternateBounds" />
          </mxGeometry>
        </mxCell>
        <mxCell id="nWNgb4miwz-LYuUAV93a-160" style="edgeStyle=orthogonalEdgeStyle;rounded=0;orthogonalLoop=1;jettySize=auto;html=1;entryX=0.998;entryY=0.731;entryDx=0;entryDy=0;entryPerimeter=0;spacingTop=0;strokeWidth=3;fillColor=#f8cecc;gradientColor=#ea6b66;strokeColor=#b85450;" edge="1" parent="1" source="nWNgb4miwz-LYuUAV93a-147" target="nWNgb4miwz-LYuUAV93a-19">
          <mxGeometry relative="1" as="geometry" />
        </mxCell>
        <mxCell id="nWNgb4miwz-LYuUAV93a-161" style="edgeStyle=orthogonalEdgeStyle;rounded=0;orthogonalLoop=1;jettySize=auto;html=1;entryX=1.007;entryY=0.722;entryDx=0;entryDy=0;entryPerimeter=0;spacingTop=0;strokeWidth=3;fillColor=#f8cecc;gradientColor=#ea6b66;strokeColor=#b85450;" edge="1" parent="1" source="nWNgb4miwz-LYuUAV93a-150" target="nWNgb4miwz-LYuUAV93a-2">
          <mxGeometry relative="1" as="geometry">
            <Array as="points">
              <mxPoint x="466" y="492" />
              <mxPoint x="466" y="103" />
            </Array>
          </mxGeometry>
        </mxCell>
        <mxCell id="nWNgb4miwz-LYuUAV93a-176" value="이벤트의 영향" style="shape=table;startSize=30;container=1;collapsible=1;childLayout=tableLayout;fixedRows=1;rowLines=0;fontStyle=1;align=center;resizeLast=1;html=1;whiteSpace=wrap;fillColor=#dae8fc;gradientColor=#7ea6e0;strokeColor=#6c8ebf;" vertex="1" parent="1">
          <mxGeometry x="591" y="521" width="180" height="150" as="geometry" />
        </mxCell>
        <mxCell id="nWNgb4miwz-LYuUAV93a-177" value="" style="shape=tableRow;horizontal=0;startSize=0;swimlaneHead=0;swimlaneBody=0;fillColor=none;collapsible=0;dropTarget=0;points=[[0,0.5],[1,0.5]];portConstraint=eastwest;top=0;left=0;right=0;bottom=0;html=1;" vertex="1" parent="nWNgb4miwz-LYuUAV93a-176">
          <mxGeometry y="30" width="180" height="30" as="geometry" />
        </mxCell>
        <mxCell id="nWNgb4miwz-LYuUAV93a-178" value="외래키" style="shape=partialRectangle;connectable=0;fillColor=none;top=0;left=0;bottom=0;right=0;fontStyle=1;overflow=hidden;html=1;whiteSpace=wrap;" vertex="1" parent="nWNgb4miwz-LYuUAV93a-177">
          <mxGeometry width="60" height="30" as="geometry">
            <mxRectangle width="60" height="30" as="alternateBounds" />
          </mxGeometry>
        </mxCell>
        <mxCell id="nWNgb4miwz-LYuUAV93a-179" value="BuildingID" style="shape=partialRectangle;connectable=0;fillColor=none;top=0;left=0;bottom=0;right=0;align=left;spacingLeft=6;fontStyle=5;overflow=hidden;html=1;whiteSpace=wrap;" vertex="1" parent="nWNgb4miwz-LYuUAV93a-177">
          <mxGeometry x="60" width="120" height="30" as="geometry">
            <mxRectangle width="120" height="30" as="alternateBounds" />
          </mxGeometry>
        </mxCell>
        <mxCell id="nWNgb4miwz-LYuUAV93a-205" value="" style="shape=tableRow;horizontal=0;startSize=0;swimlaneHead=0;swimlaneBody=0;fillColor=none;collapsible=0;dropTarget=0;points=[[0,0.5],[1,0.5]];portConstraint=eastwest;top=0;left=0;right=0;bottom=0;html=1;" vertex="1" parent="nWNgb4miwz-LYuUAV93a-176">
          <mxGeometry y="60" width="180" height="30" as="geometry" />
        </mxCell>
        <mxCell id="nWNgb4miwz-LYuUAV93a-206" value="외래키" style="shape=partialRectangle;connectable=0;fillColor=none;top=0;left=0;bottom=0;right=0;fontStyle=1;overflow=hidden;html=1;whiteSpace=wrap;" vertex="1" parent="nWNgb4miwz-LYuUAV93a-205">
          <mxGeometry width="60" height="30" as="geometry">
            <mxRectangle width="60" height="30" as="alternateBounds" />
          </mxGeometry>
        </mxCell>
        <mxCell id="nWNgb4miwz-LYuUAV93a-207" value="Colonist" style="shape=partialRectangle;connectable=0;fillColor=none;top=0;left=0;bottom=0;right=0;align=left;spacingLeft=6;fontStyle=5;overflow=hidden;html=1;whiteSpace=wrap;" vertex="1" parent="nWNgb4miwz-LYuUAV93a-205">
          <mxGeometry x="60" width="120" height="30" as="geometry">
            <mxRectangle width="120" height="30" as="alternateBounds" />
          </mxGeometry>
        </mxCell>
        <mxCell id="nWNgb4miwz-LYuUAV93a-180" value="" style="shape=tableRow;horizontal=0;startSize=0;swimlaneHead=0;swimlaneBody=0;fillColor=none;collapsible=0;dropTarget=0;points=[[0,0.5],[1,0.5]];portConstraint=eastwest;top=0;left=0;right=0;bottom=1;html=1;" vertex="1" parent="nWNgb4miwz-LYuUAV93a-176">
          <mxGeometry y="90" width="180" height="30" as="geometry" />
        </mxCell>
        <mxCell id="nWNgb4miwz-LYuUAV93a-181" value="외래키" style="shape=partialRectangle;connectable=0;fillColor=none;top=0;left=0;bottom=0;right=0;fontStyle=1;overflow=hidden;html=1;whiteSpace=wrap;" vertex="1" parent="nWNgb4miwz-LYuUAV93a-180">
          <mxGeometry width="60" height="30" as="geometry">
            <mxRectangle width="60" height="30" as="alternateBounds" />
          </mxGeometry>
        </mxCell>
        <mxCell id="nWNgb4miwz-LYuUAV93a-182" value="EventID" style="shape=partialRectangle;connectable=0;fillColor=none;top=0;left=0;bottom=0;right=0;align=left;spacingLeft=6;fontStyle=1;overflow=hidden;html=1;whiteSpace=wrap;" vertex="1" parent="nWNgb4miwz-LYuUAV93a-180">
          <mxGeometry x="60" width="120" height="30" as="geometry">
            <mxRectangle width="120" height="30" as="alternateBounds" />
          </mxGeometry>
        </mxCell>
        <mxCell id="nWNgb4miwz-LYuUAV93a-183" value="" style="shape=tableRow;horizontal=0;startSize=0;swimlaneHead=0;swimlaneBody=0;fillColor=none;collapsible=0;dropTarget=0;points=[[0,0.5],[1,0.5]];portConstraint=eastwest;top=0;left=0;right=0;bottom=0;html=1;" vertex="1" parent="nWNgb4miwz-LYuUAV93a-176">
          <mxGeometry y="120" width="180" height="30" as="geometry" />
        </mxCell>
        <mxCell id="nWNgb4miwz-LYuUAV93a-184" value="" style="shape=partialRectangle;connectable=0;fillColor=none;top=0;left=0;bottom=0;right=0;editable=1;overflow=hidden;html=1;whiteSpace=wrap;" vertex="1" parent="nWNgb4miwz-LYuUAV93a-183">
          <mxGeometry width="60" height="30" as="geometry">
            <mxRectangle width="60" height="30" as="alternateBounds" />
          </mxGeometry>
        </mxCell>
        <mxCell id="nWNgb4miwz-LYuUAV93a-185" value="영향 강도" style="shape=partialRectangle;connectable=0;fillColor=none;top=0;left=0;bottom=0;right=0;align=left;spacingLeft=6;overflow=hidden;html=1;whiteSpace=wrap;" vertex="1" parent="nWNgb4miwz-LYuUAV93a-183">
          <mxGeometry x="60" width="120" height="30" as="geometry">
            <mxRectangle width="120" height="30" as="alternateBounds" />
          </mxGeometry>
        </mxCell>
        <mxCell id="nWNgb4miwz-LYuUAV93a-194" style="edgeStyle=orthogonalEdgeStyle;rounded=0;orthogonalLoop=1;jettySize=auto;html=1;entryX=1;entryY=0.5;entryDx=0;entryDy=0;fillColor=#ffe6cc;strokeColor=#d79b00;strokeWidth=3;" edge="1" parent="1" source="nWNgb4miwz-LYuUAV93a-177" target="nWNgb4miwz-LYuUAV93a-19">
          <mxGeometry relative="1" as="geometry">
            <Array as="points">
              <mxPoint x="325" y="566" />
              <mxPoint x="325" y="380" />
            </Array>
          </mxGeometry>
        </mxCell>
        <mxCell id="nWNgb4miwz-LYuUAV93a-208" style="edgeStyle=orthogonalEdgeStyle;rounded=0;orthogonalLoop=1;jettySize=auto;html=1;strokeWidth=3;fillColor=#ffe6cc;strokeColor=#d79b00;" edge="1" parent="1" source="nWNgb4miwz-LYuUAV93a-205" target="nWNgb4miwz-LYuUAV93a-2">
          <mxGeometry relative="1" as="geometry">
            <Array as="points">
              <mxPoint x="349" y="596" />
              <mxPoint x="349" y="96" />
            </Array>
          </mxGeometry>
        </mxCell>
        <mxCell id="nWNgb4miwz-LYuUAV93a-209" style="edgeStyle=orthogonalEdgeStyle;rounded=0;orthogonalLoop=1;jettySize=auto;html=1;strokeWidth=3;fillColor=#ffe6cc;strokeColor=#d79b00;" edge="1" parent="1" source="nWNgb4miwz-LYuUAV93a-180" target="nWNgb4miwz-LYuUAV93a-48">
          <mxGeometry relative="1" as="geometry">
            <Array as="points">
              <mxPoint x="328" y="626" />
              <mxPoint x="328" y="747" />
            </Array>
          </mxGeometry>
        </mxCell>
        <mxCell id="nWNgb4miwz-LYuUAV93a-210" value="보관" style="shape=table;startSize=30;container=1;collapsible=1;childLayout=tableLayout;fixedRows=1;rowLines=0;fontStyle=1;align=center;resizeLast=1;html=1;whiteSpace=wrap;fillColor=#dae8fc;gradientColor=#7ea6e0;strokeColor=#6c8ebf;" vertex="1" parent="1">
          <mxGeometry x="-306" y="435" width="180" height="90" as="geometry" />
        </mxCell>
        <mxCell id="nWNgb4miwz-LYuUAV93a-211" value="" style="shape=tableRow;horizontal=0;startSize=0;swimlaneHead=0;swimlaneBody=0;fillColor=none;collapsible=0;dropTarget=0;points=[[0,0.5],[1,0.5]];portConstraint=eastwest;top=0;left=0;right=0;bottom=0;html=1;" vertex="1" parent="nWNgb4miwz-LYuUAV93a-210">
          <mxGeometry y="30" width="180" height="30" as="geometry" />
        </mxCell>
        <mxCell id="nWNgb4miwz-LYuUAV93a-212" value="외래키" style="shape=partialRectangle;connectable=0;fillColor=none;top=0;left=0;bottom=0;right=0;fontStyle=1;overflow=hidden;html=1;whiteSpace=wrap;" vertex="1" parent="nWNgb4miwz-LYuUAV93a-211">
          <mxGeometry width="60" height="30" as="geometry">
            <mxRectangle width="60" height="30" as="alternateBounds" />
          </mxGeometry>
        </mxCell>
        <mxCell id="nWNgb4miwz-LYuUAV93a-213" value="BuildingID" style="shape=partialRectangle;connectable=0;fillColor=none;top=0;left=0;bottom=0;right=0;align=left;spacingLeft=6;fontStyle=1;overflow=hidden;html=1;whiteSpace=wrap;" vertex="1" parent="nWNgb4miwz-LYuUAV93a-211">
          <mxGeometry x="60" width="120" height="30" as="geometry">
            <mxRectangle width="120" height="30" as="alternateBounds" />
          </mxGeometry>
        </mxCell>
        <mxCell id="nWNgb4miwz-LYuUAV93a-214" value="" style="shape=tableRow;horizontal=0;startSize=0;swimlaneHead=0;swimlaneBody=0;fillColor=none;collapsible=0;dropTarget=0;points=[[0,0.5],[1,0.5]];portConstraint=eastwest;top=0;left=0;right=0;bottom=1;html=1;" vertex="1" parent="nWNgb4miwz-LYuUAV93a-210">
          <mxGeometry y="60" width="180" height="30" as="geometry" />
        </mxCell>
        <mxCell id="nWNgb4miwz-LYuUAV93a-215" value="외래키" style="shape=partialRectangle;connectable=0;fillColor=none;top=0;left=0;bottom=0;right=0;fontStyle=1;overflow=hidden;html=1;whiteSpace=wrap;" vertex="1" parent="nWNgb4miwz-LYuUAV93a-214">
          <mxGeometry width="60" height="30" as="geometry">
            <mxRectangle width="60" height="30" as="alternateBounds" />
          </mxGeometry>
        </mxCell>
        <mxCell id="nWNgb4miwz-LYuUAV93a-216" value="ItemID" style="shape=partialRectangle;connectable=0;fillColor=none;top=0;left=0;bottom=0;right=0;align=left;spacingLeft=6;fontStyle=5;overflow=hidden;html=1;whiteSpace=wrap;" vertex="1" parent="nWNgb4miwz-LYuUAV93a-214">
          <mxGeometry x="60" width="120" height="30" as="geometry">
            <mxRectangle width="120" height="30" as="alternateBounds" />
          </mxGeometry>
        </mxCell>
        <mxCell id="nWNgb4miwz-LYuUAV93a-226" style="edgeStyle=orthogonalEdgeStyle;rounded=0;orthogonalLoop=1;jettySize=auto;html=1;strokeWidth=3;fillColor=#f8cecc;strokeColor=#b85450;" edge="1" parent="1" source="nWNgb4miwz-LYuUAV93a-211" target="nWNgb4miwz-LYuUAV93a-19">
          <mxGeometry relative="1" as="geometry" />
        </mxCell>
        <mxCell id="nWNgb4miwz-LYuUAV93a-227" style="edgeStyle=orthogonalEdgeStyle;rounded=0;orthogonalLoop=1;jettySize=auto;html=1;entryX=0.017;entryY=0.682;entryDx=0;entryDy=0;entryPerimeter=0;strokeWidth=3;fillColor=#f8cecc;strokeColor=#b85450;" edge="1" parent="1" source="nWNgb4miwz-LYuUAV93a-214" target="nWNgb4miwz-LYuUAV93a-35">
          <mxGeometry relative="1" as="geometry" />
        </mxCell>
        <mxCell id="nWNgb4miwz-LYuUAV93a-228" value="보관" style="shape=table;startSize=30;container=1;collapsible=1;childLayout=tableLayout;fixedRows=1;rowLines=0;fontStyle=1;align=center;resizeLast=1;html=1;whiteSpace=wrap;fillColor=#dae8fc;gradientColor=#7ea6e0;strokeColor=#6c8ebf;" vertex="1" parent="1">
          <mxGeometry x="-306" y="290" width="180" height="90" as="geometry" />
        </mxCell>
        <mxCell id="nWNgb4miwz-LYuUAV93a-229" value="" style="shape=tableRow;horizontal=0;startSize=0;swimlaneHead=0;swimlaneBody=0;fillColor=none;collapsible=0;dropTarget=0;points=[[0,0.5],[1,0.5]];portConstraint=eastwest;top=0;left=0;right=0;bottom=0;html=1;" vertex="1" parent="nWNgb4miwz-LYuUAV93a-228">
          <mxGeometry y="30" width="180" height="30" as="geometry" />
        </mxCell>
        <mxCell id="nWNgb4miwz-LYuUAV93a-230" value="외래키" style="shape=partialRectangle;connectable=0;fillColor=none;top=0;left=0;bottom=0;right=0;fontStyle=1;overflow=hidden;html=1;whiteSpace=wrap;" vertex="1" parent="nWNgb4miwz-LYuUAV93a-229">
          <mxGeometry width="60" height="30" as="geometry">
            <mxRectangle width="60" height="30" as="alternateBounds" />
          </mxGeometry>
        </mxCell>
        <mxCell id="nWNgb4miwz-LYuUAV93a-231" value="ColonistID" style="shape=partialRectangle;connectable=0;fillColor=none;top=0;left=0;bottom=0;right=0;align=left;spacingLeft=6;fontStyle=1;overflow=hidden;html=1;whiteSpace=wrap;" vertex="1" parent="nWNgb4miwz-LYuUAV93a-229">
          <mxGeometry x="60" width="120" height="30" as="geometry">
            <mxRectangle width="120" height="30" as="alternateBounds" />
          </mxGeometry>
        </mxCell>
        <mxCell id="nWNgb4miwz-LYuUAV93a-232" value="" style="shape=tableRow;horizontal=0;startSize=0;swimlaneHead=0;swimlaneBody=0;fillColor=none;collapsible=0;dropTarget=0;points=[[0,0.5],[1,0.5]];portConstraint=eastwest;top=0;left=0;right=0;bottom=1;html=1;" vertex="1" parent="nWNgb4miwz-LYuUAV93a-228">
          <mxGeometry y="60" width="180" height="30" as="geometry" />
        </mxCell>
        <mxCell id="nWNgb4miwz-LYuUAV93a-233" value="외래키" style="shape=partialRectangle;connectable=0;fillColor=none;top=0;left=0;bottom=0;right=0;fontStyle=1;overflow=hidden;html=1;whiteSpace=wrap;" vertex="1" parent="nWNgb4miwz-LYuUAV93a-232">
          <mxGeometry width="60" height="30" as="geometry">
            <mxRectangle width="60" height="30" as="alternateBounds" />
          </mxGeometry>
        </mxCell>
        <mxCell id="nWNgb4miwz-LYuUAV93a-234" value="ItemID" style="shape=partialRectangle;connectable=0;fillColor=none;top=0;left=0;bottom=0;right=0;align=left;spacingLeft=6;fontStyle=5;overflow=hidden;html=1;whiteSpace=wrap;" vertex="1" parent="nWNgb4miwz-LYuUAV93a-232">
          <mxGeometry x="60" width="120" height="30" as="geometry">
            <mxRectangle width="120" height="30" as="alternateBounds" />
          </mxGeometry>
        </mxCell>
        <mxCell id="nWNgb4miwz-LYuUAV93a-235" style="edgeStyle=orthogonalEdgeStyle;rounded=0;orthogonalLoop=1;jettySize=auto;html=1;entryX=0.001;entryY=0.638;entryDx=0;entryDy=0;entryPerimeter=0;strokeWidth=3;fillColor=#ffe6cc;strokeColor=#d79b00;" edge="1" parent="1" source="nWNgb4miwz-LYuUAV93a-229" target="nWNgb4miwz-LYuUAV93a-2">
          <mxGeometry relative="1" as="geometry" />
        </mxCell>
        <mxCell id="nWNgb4miwz-LYuUAV93a-236" style="edgeStyle=orthogonalEdgeStyle;rounded=0;orthogonalLoop=1;jettySize=auto;html=1;entryX=0.01;entryY=0.262;entryDx=0;entryDy=0;entryPerimeter=0;strokeWidth=3;fillColor=#ffe6cc;strokeColor=#d79b00;" edge="1" parent="1" source="nWNgb4miwz-LYuUAV93a-232" target="nWNgb4miwz-LYuUAV93a-35">
          <mxGeometry relative="1" as="geometry">
            <Array as="points">
              <mxPoint x="-24" y="365" />
              <mxPoint x="-24" y="562" />
            </Array>
          </mxGeometry>
        </mxCell>
        <mxCell id="nWNgb4miwz-LYuUAV93a-237" value="조련" style="shape=table;startSize=30;container=1;collapsible=1;childLayout=tableLayout;fixedRows=1;rowLines=0;fontStyle=1;align=center;resizeLast=1;html=1;whiteSpace=wrap;fillColor=#dae8fc;gradientColor=#7ea6e0;strokeColor=#6c8ebf;" vertex="1" parent="1">
          <mxGeometry x="-306" y="569" width="180" height="120" as="geometry" />
        </mxCell>
        <mxCell id="nWNgb4miwz-LYuUAV93a-238" value="" style="shape=tableRow;horizontal=0;startSize=0;swimlaneHead=0;swimlaneBody=0;fillColor=none;collapsible=0;dropTarget=0;points=[[0,0.5],[1,0.5]];portConstraint=eastwest;top=0;left=0;right=0;bottom=0;html=1;" vertex="1" parent="nWNgb4miwz-LYuUAV93a-237">
          <mxGeometry y="30" width="180" height="30" as="geometry" />
        </mxCell>
        <mxCell id="nWNgb4miwz-LYuUAV93a-239" value="외래키" style="shape=partialRectangle;connectable=0;fillColor=none;top=0;left=0;bottom=0;right=0;fontStyle=1;overflow=hidden;html=1;whiteSpace=wrap;" vertex="1" parent="nWNgb4miwz-LYuUAV93a-238">
          <mxGeometry width="60" height="30" as="geometry">
            <mxRectangle width="60" height="30" as="alternateBounds" />
          </mxGeometry>
        </mxCell>
        <mxCell id="nWNgb4miwz-LYuUAV93a-240" value="ColonistID" style="shape=partialRectangle;connectable=0;fillColor=none;top=0;left=0;bottom=0;right=0;align=left;spacingLeft=6;fontStyle=5;overflow=hidden;html=1;whiteSpace=wrap;" vertex="1" parent="nWNgb4miwz-LYuUAV93a-238">
          <mxGeometry x="60" width="120" height="30" as="geometry">
            <mxRectangle width="120" height="30" as="alternateBounds" />
          </mxGeometry>
        </mxCell>
        <mxCell id="nWNgb4miwz-LYuUAV93a-241" value="" style="shape=tableRow;horizontal=0;startSize=0;swimlaneHead=0;swimlaneBody=0;fillColor=none;collapsible=0;dropTarget=0;points=[[0,0.5],[1,0.5]];portConstraint=eastwest;top=0;left=0;right=0;bottom=1;html=1;" vertex="1" parent="nWNgb4miwz-LYuUAV93a-237">
          <mxGeometry y="60" width="180" height="30" as="geometry" />
        </mxCell>
        <mxCell id="nWNgb4miwz-LYuUAV93a-242" value="외래키" style="shape=partialRectangle;connectable=0;fillColor=none;top=0;left=0;bottom=0;right=0;fontStyle=1;overflow=hidden;html=1;whiteSpace=wrap;" vertex="1" parent="nWNgb4miwz-LYuUAV93a-241">
          <mxGeometry width="60" height="30" as="geometry">
            <mxRectangle width="60" height="30" as="alternateBounds" />
          </mxGeometry>
        </mxCell>
        <mxCell id="nWNgb4miwz-LYuUAV93a-243" value="AnimalID" style="shape=partialRectangle;connectable=0;fillColor=none;top=0;left=0;bottom=0;right=0;align=left;spacingLeft=6;fontStyle=1;overflow=hidden;html=1;whiteSpace=wrap;" vertex="1" parent="nWNgb4miwz-LYuUAV93a-241">
          <mxGeometry x="60" width="120" height="30" as="geometry">
            <mxRectangle width="120" height="30" as="alternateBounds" />
          </mxGeometry>
        </mxCell>
        <mxCell id="nWNgb4miwz-LYuUAV93a-244" value="" style="shape=tableRow;horizontal=0;startSize=0;swimlaneHead=0;swimlaneBody=0;fillColor=none;collapsible=0;dropTarget=0;points=[[0,0.5],[1,0.5]];portConstraint=eastwest;top=0;left=0;right=0;bottom=0;html=1;" vertex="1" parent="nWNgb4miwz-LYuUAV93a-237">
          <mxGeometry y="90" width="180" height="30" as="geometry" />
        </mxCell>
        <mxCell id="nWNgb4miwz-LYuUAV93a-245" value="" style="shape=partialRectangle;connectable=0;fillColor=none;top=0;left=0;bottom=0;right=0;editable=1;overflow=hidden;html=1;whiteSpace=wrap;" vertex="1" parent="nWNgb4miwz-LYuUAV93a-244">
          <mxGeometry width="60" height="30" as="geometry">
            <mxRectangle width="60" height="30" as="alternateBounds" />
          </mxGeometry>
        </mxCell>
        <mxCell id="nWNgb4miwz-LYuUAV93a-246" value="조련단계" style="shape=partialRectangle;connectable=0;fillColor=none;top=0;left=0;bottom=0;right=0;align=left;spacingLeft=6;overflow=hidden;html=1;whiteSpace=wrap;" vertex="1" parent="nWNgb4miwz-LYuUAV93a-244">
          <mxGeometry x="60" width="120" height="30" as="geometry">
            <mxRectangle width="120" height="30" as="alternateBounds" />
          </mxGeometry>
        </mxCell>
        <mxCell id="nWNgb4miwz-LYuUAV93a-253" style="edgeStyle=orthogonalEdgeStyle;rounded=0;orthogonalLoop=1;jettySize=auto;html=1;strokeWidth=3;fillColor=#d5e8d4;strokeColor=#82b366;" edge="1" parent="1" source="nWNgb4miwz-LYuUAV93a-238" target="nWNgb4miwz-LYuUAV93a-2">
          <mxGeometry relative="1" as="geometry">
            <Array as="points">
              <mxPoint x="-9" y="614" />
              <mxPoint x="-9" y="96" />
            </Array>
          </mxGeometry>
        </mxCell>
        <mxCell id="nWNgb4miwz-LYuUAV93a-254" style="edgeStyle=orthogonalEdgeStyle;rounded=0;orthogonalLoop=1;jettySize=auto;html=1;strokeWidth=3;fillColor=#d5e8d4;strokeColor=#82b366;" edge="1" parent="1" source="nWNgb4miwz-LYuUAV93a-241" target="nWNgb4miwz-LYuUAV93a-64">
          <mxGeometry relative="1" as="geometry" />
        </mxCell>
        <mxCell id="nWNgb4miwz-LYuUAV93a-255" value="정착민-건강" style="shape=table;startSize=30;container=1;collapsible=1;childLayout=tableLayout;fixedRows=1;rowLines=0;fontStyle=1;align=center;resizeLast=1;html=1;whiteSpace=wrap;fillColor=#dae8fc;gradientColor=#7ea6e0;strokeColor=#6c8ebf;" vertex="1" parent="1">
          <mxGeometry x="268" y="-106" width="180" height="90" as="geometry" />
        </mxCell>
        <mxCell id="nWNgb4miwz-LYuUAV93a-256" value="" style="shape=tableRow;horizontal=0;startSize=0;swimlaneHead=0;swimlaneBody=0;fillColor=none;collapsible=0;dropTarget=0;points=[[0,0.5],[1,0.5]];portConstraint=eastwest;top=0;left=0;right=0;bottom=0;html=1;" vertex="1" parent="nWNgb4miwz-LYuUAV93a-255">
          <mxGeometry y="30" width="180" height="30" as="geometry" />
        </mxCell>
        <mxCell id="nWNgb4miwz-LYuUAV93a-257" value="기본키" style="shape=partialRectangle;connectable=0;fillColor=none;top=0;left=0;bottom=0;right=0;fontStyle=1;overflow=hidden;html=1;whiteSpace=wrap;" vertex="1" parent="nWNgb4miwz-LYuUAV93a-256">
          <mxGeometry width="60" height="30" as="geometry">
            <mxRectangle width="60" height="30" as="alternateBounds" />
          </mxGeometry>
        </mxCell>
        <mxCell id="nWNgb4miwz-LYuUAV93a-258" value="건강 상태" style="shape=partialRectangle;connectable=0;fillColor=none;top=0;left=0;bottom=0;right=0;align=left;spacingLeft=6;fontStyle=5;overflow=hidden;html=1;whiteSpace=wrap;" vertex="1" parent="nWNgb4miwz-LYuUAV93a-256">
          <mxGeometry x="60" width="120" height="30" as="geometry">
            <mxRectangle width="120" height="30" as="alternateBounds" />
          </mxGeometry>
        </mxCell>
        <mxCell id="nWNgb4miwz-LYuUAV93a-259" value="" style="shape=tableRow;horizontal=0;startSize=0;swimlaneHead=0;swimlaneBody=0;fillColor=none;collapsible=0;dropTarget=0;points=[[0,0.5],[1,0.5]];portConstraint=eastwest;top=0;left=0;right=0;bottom=1;html=1;" vertex="1" parent="nWNgb4miwz-LYuUAV93a-255">
          <mxGeometry y="60" width="180" height="30" as="geometry" />
        </mxCell>
        <mxCell id="nWNgb4miwz-LYuUAV93a-260" value="외래키" style="shape=partialRectangle;connectable=0;fillColor=none;top=0;left=0;bottom=0;right=0;fontStyle=1;overflow=hidden;html=1;whiteSpace=wrap;" vertex="1" parent="nWNgb4miwz-LYuUAV93a-259">
          <mxGeometry width="60" height="30" as="geometry">
            <mxRectangle width="60" height="30" as="alternateBounds" />
          </mxGeometry>
        </mxCell>
        <mxCell id="nWNgb4miwz-LYuUAV93a-261" value="ColonistID" style="shape=partialRectangle;connectable=0;fillColor=none;top=0;left=0;bottom=0;right=0;align=left;spacingLeft=6;fontStyle=5;overflow=hidden;html=1;whiteSpace=wrap;" vertex="1" parent="nWNgb4miwz-LYuUAV93a-259">
          <mxGeometry x="60" width="120" height="30" as="geometry">
            <mxRectangle width="120" height="30" as="alternateBounds" />
          </mxGeometry>
        </mxCell>
        <mxCell id="nWNgb4miwz-LYuUAV93a-268" style="edgeStyle=orthogonalEdgeStyle;rounded=0;orthogonalLoop=1;jettySize=auto;html=1;entryX=0.996;entryY=0.363;entryDx=0;entryDy=0;entryPerimeter=0;strokeWidth=3;fillColor=#fad9d5;strokeColor=#ae4132;" edge="1" parent="1" source="nWNgb4miwz-LYuUAV93a-259" target="nWNgb4miwz-LYuUAV93a-2">
          <mxGeometry relative="1" as="geometry" />
        </mxCell>
        <mxCell id="nWNgb4miwz-LYuUAV93a-269" value="정착민-건강" style="shape=table;startSize=30;container=1;collapsible=1;childLayout=tableLayout;fixedRows=1;rowLines=0;fontStyle=1;align=center;resizeLast=1;html=1;whiteSpace=wrap;fillColor=#dae8fc;gradientColor=#7ea6e0;strokeColor=#6c8ebf;" vertex="1" parent="1">
          <mxGeometry x="268" y="952" width="180" height="90" as="geometry" />
        </mxCell>
        <mxCell id="nWNgb4miwz-LYuUAV93a-270" value="" style="shape=tableRow;horizontal=0;startSize=0;swimlaneHead=0;swimlaneBody=0;fillColor=none;collapsible=0;dropTarget=0;points=[[0,0.5],[1,0.5]];portConstraint=eastwest;top=0;left=0;right=0;bottom=0;html=1;" vertex="1" parent="nWNgb4miwz-LYuUAV93a-269">
          <mxGeometry y="30" width="180" height="30" as="geometry" />
        </mxCell>
        <mxCell id="nWNgb4miwz-LYuUAV93a-271" value="기본키" style="shape=partialRectangle;connectable=0;fillColor=none;top=0;left=0;bottom=0;right=0;fontStyle=1;overflow=hidden;html=1;whiteSpace=wrap;" vertex="1" parent="nWNgb4miwz-LYuUAV93a-270">
          <mxGeometry width="60" height="30" as="geometry">
            <mxRectangle width="60" height="30" as="alternateBounds" />
          </mxGeometry>
        </mxCell>
        <mxCell id="nWNgb4miwz-LYuUAV93a-272" value="건강 상태" style="shape=partialRectangle;connectable=0;fillColor=none;top=0;left=0;bottom=0;right=0;align=left;spacingLeft=6;fontStyle=5;overflow=hidden;html=1;whiteSpace=wrap;" vertex="1" parent="nWNgb4miwz-LYuUAV93a-270">
          <mxGeometry x="60" width="120" height="30" as="geometry">
            <mxRectangle width="120" height="30" as="alternateBounds" />
          </mxGeometry>
        </mxCell>
        <mxCell id="nWNgb4miwz-LYuUAV93a-273" value="" style="shape=tableRow;horizontal=0;startSize=0;swimlaneHead=0;swimlaneBody=0;fillColor=none;collapsible=0;dropTarget=0;points=[[0,0.5],[1,0.5]];portConstraint=eastwest;top=0;left=0;right=0;bottom=1;html=1;" vertex="1" parent="nWNgb4miwz-LYuUAV93a-269">
          <mxGeometry y="60" width="180" height="30" as="geometry" />
        </mxCell>
        <mxCell id="nWNgb4miwz-LYuUAV93a-274" value="외래키" style="shape=partialRectangle;connectable=0;fillColor=none;top=0;left=0;bottom=0;right=0;fontStyle=1;overflow=hidden;html=1;whiteSpace=wrap;" vertex="1" parent="nWNgb4miwz-LYuUAV93a-273">
          <mxGeometry width="60" height="30" as="geometry">
            <mxRectangle width="60" height="30" as="alternateBounds" />
          </mxGeometry>
        </mxCell>
        <mxCell id="nWNgb4miwz-LYuUAV93a-275" value="AnimalID" style="shape=partialRectangle;connectable=0;fillColor=none;top=0;left=0;bottom=0;right=0;align=left;spacingLeft=6;fontStyle=5;overflow=hidden;html=1;whiteSpace=wrap;" vertex="1" parent="nWNgb4miwz-LYuUAV93a-273">
          <mxGeometry x="60" width="120" height="30" as="geometry">
            <mxRectangle width="120" height="30" as="alternateBounds" />
          </mxGeometry>
        </mxCell>
        <mxCell id="nWNgb4miwz-LYuUAV93a-276" style="edgeStyle=orthogonalEdgeStyle;rounded=0;orthogonalLoop=1;jettySize=auto;html=1;entryX=0.999;entryY=0.71;entryDx=0;entryDy=0;entryPerimeter=0;" edge="1" parent="1" source="nWNgb4miwz-LYuUAV93a-273" target="nWNgb4miwz-LYuUAV93a-64">
          <mxGeometry relative="1" as="geometry" />
        </mxCell>
      </root>
    </mxGraphModel>
  </diagram>
</mxfile>
